<svg width="24" height="24" viewBox="0 0 24 24" fill="none" xmlns="http://www.w3.org/2000/svg">
<path fill-rule="evenodd" clip-rule="evenodd" d="M12 5C7.53201 5 3.62016 7.45943 1.46177 11.1392C1.14988 11.671 1.14988 12.329 1.46177 12.8608C3.62016 16.5406 7.53201 19 12 19C16.468 19 20.3798 16.5406 22.5382 12.8608C22.8501 12.329 22.8501 11.671 22.5382 11.1392C20.3798 7.45943 16.468 5 12 5ZM10.5 10.5C11.3043 9.69575 11.9713 8.53184 12 7.62405C12.0287 8.53184 12.6957 9.69575 13.5 10.5C14.3043 11.3043 15.4682 11.9713 16.3759 12C15.4682 12.0287 14.3043 12.6957 13.5 13.5C12.6957 14.3043 12.0287 15.4682 12 16.3759C11.9713 15.4682 11.3043 14.3043 10.5 13.5C9.69575 12.6957 8.53184 12.0287 7.62405 12C8.53184 11.9713 9.69575 11.3043 10.5 10.5Z" fill="#272727"/>
</svg>
