<svg width="22" height="14" viewBox="0 0 22 14" fill="none" xmlns="http://www.w3.org/2000/svg">
<path fill-rule="evenodd" clip-rule="evenodd" d="M10.7722 0C6.30417 0 2.39232 2.45943 0.233925 6.13924C-0.0779621 6.67097 -0.0779619 7.32903 0.233925 7.86076C2.39232 11.5406 6.30417 14 10.7722 14C15.2401 14 19.152 11.5406 21.3104 7.86076C21.6223 7.32903 21.6223 6.67097 21.3104 6.13924C19.152 2.45943 15.2401 0 10.7722 0ZM9.27216 5.5C10.0764 4.69575 10.7434 3.53184 10.7722 2.62405C10.8009 3.53184 11.4679 4.69575 12.2722 5.5C13.0764 6.30425 14.2403 6.97126 15.1481 7C14.2403 7.02874 13.0764 7.69575 12.2722 8.5C11.4679 9.30425 10.8009 10.4682 10.7722 11.3759C10.7434 10.4682 10.0764 9.30425 9.27216 8.5C8.4679 7.69575 7.304 7.02874 6.39621 7C7.304 6.97126 8.4679 6.30425 9.27216 5.5Z" fill="white" fill-opacity="0.9"/>
</svg>
