<?xml version="1.0" encoding="UTF-8"?><svg id="Layer_1" xmlns="http://www.w3.org/2000/svg" xmlns:xlink="http://www.w3.org/1999/xlink" viewBox="0 0 100 100"><defs><style>.cls-1{fill:url(#linear-gradient);}.cls-2{fill:none;stroke:#272727;stroke-linecap:round;stroke-linejoin:round;}</style><linearGradient id="linear-gradient" x1="16.705" y1="90.641" x2="65.813" y2="23.936" gradientUnits="userSpaceOnUse"><stop offset=".03" stop-color="#fff" stop-opacity="0"/><stop offset=".042" stop-color="#fefdfe" stop-opacity=".049"/><stop offset=".094" stop-color="#fdf6fa" stop-opacity=".245"/><stop offset=".142" stop-color="#fcf0f7" stop-opacity=".399"/><stop offset=".187" stop-color="#fbecf4" stop-opacity=".509"/><stop offset=".226" stop-color="#fbe9f3" stop-opacity=".576"/><stop offset=".255" stop-color="#fbe9f3" stop-opacity=".6"/><stop offset=".399" stop-color="#e9c0d7" stop-opacity=".746"/><stop offset=".591" stop-color="#d998bc" stop-opacity=".887"/><stop offset=".788" stop-color="#cf80ac" stop-opacity=".972"/><stop offset=".999" stop-color="#cc79a7"/></linearGradient></defs><path class="cls-1" d="M52.967,72.416c12.068-3.391,12.205-7.296,18.948-8.48,10.923-1.918,22.858-3.73,22.592-9.591-.138-3.041-2.877-5.275-8.099-3.09-5.528,2.313-10.772.91-10.772.91l-.042.038c.774-.961,1.488-1.995,2.075-3.114,3.765-7.175-1.817-10.301-1.817-10.301l-.875.76c.846-1.811,1.117-3.506.632-4.952-1.35-4.019-6.287-3.979-6.287-3.979.71-2.895.391-6.252-3.73-8.099-8.241-3.694-18.116,8.667-21.597,8.312-3.481-.355-2.629-3.623-5.257-8.738-2.629-5.115-10.142-13.668-16.34-9.378-5.541,3.836-.426,9.342-.426,9.342,6.962,8.738,4.867,13.321,3.588,22.059-.707,4.829-.579,7.187-.324,8.331.171.765-.1,1.53-.698,2.036-3.922,3.319-9.157,7.678-19.048,22.029l25.363,16.056c4.795-10.763,10.515-17.644,15.356-18.573,2.62-.503,4.828-1.034,6.76-1.577"/><path class="cls-2" d="M27.157,57.648s-2.877-4.795-1.598-13.534,3.375-13.321-3.588-22.059c0,0-5.115-5.506.426-9.342,6.198-4.291,13.711,4.263,16.34,9.378,2.629,5.115,1.776,8.383,5.257,8.738s13.356-12.006,21.597-8.312c4.121,1.847,4.44,5.204,3.73,8.099-.7,2.852-2.415,5.329-4.668,7.212-3.466,2.897-10.099,8.235-13.271,9.412-4.405,1.634-9.307-4.049-5.897-7.673,3.41-3.623,7.389-6.607,11.793-10.23"/><path class="cls-2" d="M69.322,30.616s4.938-.04,6.287,3.978c1.61,4.793-4.973,12.291-13.925,17.832-8.567,5.303-13.782.781-12.955-4.596"/><path class="cls-2" d="M75.852,38.786s5.582,3.126,1.817,10.301c-2.541,4.842-7.293,8.251-10.267,9.86-2.171,1.175-4.873,1.178-6.906-.222-1.261-.868-2.292-2.285-2.292-4.596"/><path class="cls-2" d="M75.636,52.163s5.244,1.403,10.772-.91c5.222-2.185,7.961.05,8.099,3.09.266,5.861-11.669,7.673-22.592,9.591-7.822,1.374-6.714,6.41-25.708,10.057-4.84.929-10.205,7.1-15,17.863"/><path class="cls-2" d="M5.951,75.87s10.15-16.714,19.781-22.37"/></svg>