<?xml version="1.0" encoding="UTF-8"?><svg id="Layer_1" xmlns="http://www.w3.org/2000/svg" xmlns:xlink="http://www.w3.org/1999/xlink" viewBox="0 0 100 100"><defs><style>.cls-1{fill:url(#linear-gradient);}.cls-2{fill:none;stroke:#272727;stroke-linecap:round;stroke-linejoin:round;}</style><linearGradient id="linear-gradient" x1="15.913" y1="73.717" x2="83.054" y2="35.805" gradientUnits="userSpaceOnUse"><stop offset=".051" stop-color="#fff" stop-opacity="0"/><stop offset=".085" stop-color="#fcf2f7" stop-opacity=".109"/><stop offset=".158" stop-color="#f8d9ea" stop-opacity=".319"/><stop offset=".222" stop-color="#f5c7e0" stop-opacity=".472"/><stop offset=".274" stop-color="#f3bdda" stop-opacity=".566"/><stop offset=".306" stop-color="#f3b9d8" stop-opacity=".6"/><stop offset=".437" stop-color="#e4a0c5" stop-opacity=".751"/><stop offset=".598" stop-color="#d68ab4" stop-opacity=".889"/><stop offset=".76" stop-color="#ce7daa" stop-opacity=".972"/><stop offset=".92" stop-color="#cc79a7"/></linearGradient></defs><path class="cls-1" d="M64.655,54.696c3.589-2.846,7.194-2.461,10.643.578.665.586,1.723,1.374,2.351,2.145,0,0,2.794,4.977,7.158,2.229,4.048-2.549,2.132-8.679-.267-11.145-1.259-1.294-4.226-4.034-8.704-5.483l.441-.514c-.067-.43-1.733-6.53-6.73-7.596,0,0,.2-3.132-4.131-4.931-1.874-.778-3.646-.606-4.798-.446,0,0,2.599-4.151,3.798-9.549s-1.999-7.597-4.265-7.796-4.665,1.466-6.597,6.73c-1.932,5.264-6.373,11.659-7.796,13.304-7.474,8.64-15.952,14.082-19.909,16.355,0,0-3.327,1.922-3.447,2.144l-1.678.935-10.673,5.69,15.06,29.586s18.69-11.237,24.241-12.95c2.448,2.055,7.172,4.734,15.324,4.907,9.977.212,16.456-4.079,19.2-7.537,1.214-1.53,1.726-3.551,1.133-5.412-.352-1.103-1.065-2.209-2.451-2.893-1.452-.717-3.189-.575-4.594.23-3.198,1.833-6.512,4.84-11.017,3.701-.044-.011-.089-.023-.132-.034-4.338-1.155-6.081-7.008-3.729-10.111l1.568-2.136Z"/><path class="cls-2" d="M26.415,86.419s14.527-8.796,23.189-12.128"/><path class="cls-2" d="M47.739,71.626s4.201,6.98,17.52,7.263c10.029.214,16.523-4.124,19.243-7.591,1.207-1.539,1.686-3.591,1.062-5.445-.365-1.085-1.087-2.16-2.462-2.825-1.669-.807-3.592-.348-5.175.617-3.01,1.836-6.182,4.399-10.397,3.333-6.876-1.739-6.047-8.602-4.281-10.928,3.298-4.348,9.846-4.198,14.893,1.999,0,0,2.883,4.347,7.247,1.599,4.048-2.549,2.132-8.679-.267-11.145s-10.995-10.195-24.455-4.198"/><path class="cls-2" d="M56.935,38.841s8.196-4.998,13.194-3.932,6.664,7.166,6.73,7.597"/><path class="cls-2" d="M54.869,32.71c.666-.333,6.797-4.531,11.128-2.732s4.131,4.931,4.131,4.931"/><path class="cls-2" d="M11.356,56.833c8.722-4.805,7.318-3.954,14.26-7.796,3.493-1.933,12.691-7.53,20.724-16.816,1.423-1.645,5.864-8.04,7.796-13.304s4.331-6.93,6.597-6.73,5.464,2.399,4.265,7.796c-1.199,5.398-3.798,9.549-3.798,9.549"/></svg>