<svg width="24" height="24" viewBox="0 0 24 24" fill="none" xmlns="http://www.w3.org/2000/svg">
<path d="M11.9998 5C16.5567 5 20.5479 7.45378 22.7537 11.126C23.0767 11.6642 23.0767 12.3358 22.7537 12.874C20.5479 16.5462 16.5567 19 11.9998 19C7.44297 18.9999 3.45259 16.5461 1.24683 12.874C0.923686 12.3357 0.923686 11.6643 1.24683 11.126C3.45259 7.45387 7.44297 5.00012 11.9998 5ZM11.7722 7C9.0108 7 6.77222 9.23858 6.77222 12C6.77222 14.7614 9.0108 17 11.7722 17C14.5335 16.9999 16.7722 14.7613 16.7722 12C16.7722 9.23866 14.5335 7.00014 11.7722 7Z" fill="white" fill-opacity="0.9"/>
<path d="M13.772 14.9591V9.04093C13.772 8.62167 13.287 8.38797 12.9596 8.64988L9.26001 11.6096C9.0098 11.8097 9.0098 12.1903 9.26001 12.3904L12.9596 15.3501C13.287 15.612 13.772 15.3783 13.772 14.9591Z" fill="white" fill-opacity="0.9"/>
</svg>
