<svg width="24" height="24" viewBox="0 0 24 24" fill="none" xmlns="http://www.w3.org/2000/svg">
<path d="M11.9999 5C16.5583 5.00002 20.55 7.45314 22.7567 11.125C23.0804 11.6636 23.0804 12.3364 22.7567 12.875C20.55 16.5469 16.5583 19 11.9999 19C7.44143 19 3.44979 16.5469 1.24304 12.875C0.919379 12.3364 0.919379 11.6636 1.24304 11.125C3.44979 7.45315 7.44143 5 11.9999 5ZM11.9999 7C9.23852 7.00008 6.99988 9.23862 6.99988 12C6.99988 14.7614 9.23852 16.9999 11.9999 17C14.7613 17 16.9999 14.7614 16.9999 12C16.9999 9.23858 14.7613 7 11.9999 7Z" fill="#272727"/>
<path d="M11.5 13.9997V10.0003C11.5 9.58826 11.0296 9.35279 10.7 9.6L8.03333 11.6C7.76667 11.8 7.76667 12.2 8.03333 12.4L10.7 14.4C11.0296 14.6472 11.5 14.4117 11.5 13.9997Z" fill="#272727"/>
<path d="M12.5 13.9997V10.0003C12.5 9.58826 12.9704 9.35279 13.3 9.6L15.9667 11.6C16.2333 11.8 16.2333 12.2 15.9667 12.4L13.3 14.4C12.9704 14.6472 12.5 14.4117 12.5 13.9997Z" fill="#272727"/>
</svg>
