<svg width="24" height="24" viewBox="0 0 24 24" fill="none" xmlns="http://www.w3.org/2000/svg">
<path d="M11.9998 5C16.5567 5 20.5479 7.45378 22.7537 11.126C23.0767 11.6642 23.0767 12.3358 22.7537 12.874C20.5479 16.5462 16.5567 19 11.9998 19C7.44297 18.9999 3.4526 16.5461 1.24684 12.874C0.923694 12.3357 0.923694 11.6643 1.24684 11.126C3.4526 7.45387 7.44297 5.00012 11.9998 5ZM11.7722 7C9.01081 7 6.77223 9.23858 6.77223 12C6.77223 14.7614 9.01081 17 11.7722 17C14.5335 16.9999 16.7722 14.7613 16.7722 12C16.7722 9.23866 14.5335 7.00014 11.7722 7Z" fill="white" fill-opacity="0.9"/>
<path d="M10 14.9591V9.04093C10 8.62167 10.485 8.38797 10.8123 8.64988L14.512 11.6096C14.7622 11.8097 14.7622 12.1903 14.512 12.3904L10.8123 15.3501C10.485 15.612 10 15.3783 10 14.9591Z" fill="white" fill-opacity="0.9"/>
</svg>
