<svg width="24" height="24" viewBox="0 0 24 24" fill="none" xmlns="http://www.w3.org/2000/svg">
<path d="M12.0002 5C16.5586 5.00012 20.5504 7.45314 22.7571 11.125C23.0807 11.6636 23.0807 12.3364 22.7571 12.875C20.5504 16.5469 16.5586 18.9999 12.0002 19C7.44167 19 3.44914 16.547 1.24243 12.875C0.918769 12.3364 0.918769 11.6636 1.24243 11.125C3.44914 7.45298 7.44167 5 12.0002 5ZM11.9993 7C9.23699 7.00025 6.99731 9.23873 6.99731 12C6.99731 14.7613 9.23699 16.9997 11.9993 17C14.7618 17 17.0012 14.7614 17.0012 12C17.0012 9.23858 14.7618 7 11.9993 7Z" fill="white" fill-opacity="0.9"/>
</svg>
